<svg width="27" height="34" viewBox="0 0 27 34" fill="none" xmlns="http://www.w3.org/2000/svg">
<path d="M24.2857 13.3571C24.2857 10.4587 23.1343 7.67898 21.0848 5.62948C19.0353 3.57997 16.2556 2.42857 13.3571 2.42857C10.4587 2.42857 7.67898 3.57997 5.62948 5.62948C3.57997 7.67898 2.42857 10.4587 2.42857 13.3571C2.42857 17.8403 6.01557 23.6834 13.3571 30.6826C20.6987 23.6834 24.2857 17.8403 24.2857 13.3571ZM13.3571 34C4.45157 25.9056 0 19.023 0 13.3571C0 9.81461 1.40727 6.41717 3.91222 3.91222C6.41717 1.40727 9.81461 0 13.3571 0C16.8997 0 20.2971 1.40727 22.8021 3.91222C25.307 6.41717 26.7143 9.81461 26.7143 13.3571C26.7143 19.023 22.2627 25.9056 13.3571 34Z" fill="#EBEBEB" fill-opacity="0.6"/>
<path d="M13.3566 16.9994C14.3227 16.9994 15.2493 16.6156 15.9325 15.9325C16.6156 15.2493 16.9994 14.3227 16.9994 13.3566C16.9994 12.3904 16.6156 11.4639 15.9325 10.7807C15.2493 10.0975 14.3227 9.71373 13.3566 9.71373C12.3904 9.71373 11.4639 10.0975 10.7807 10.7807C10.0975 11.4639 9.71373 12.3904 9.71373 13.3566C9.71373 14.3227 10.0975 15.2493 10.7807 15.9325C11.4639 16.6156 12.3904 16.9994 13.3566 16.9994ZM13.3566 19.428C11.7463 19.428 10.2021 18.7883 9.06344 17.6497C7.92482 16.5111 7.28516 14.9668 7.28516 13.3566C7.28516 11.7463 7.92482 10.2021 9.06344 9.06344C10.2021 7.92482 11.7463 7.28516 13.3566 7.28516C14.9668 7.28516 16.5111 7.92482 17.6497 9.06344C18.7883 10.2021 19.428 11.7463 19.428 13.3566C19.428 14.9668 18.7883 16.5111 17.6497 17.6497C16.5111 18.7883 14.9668 19.428 13.3566 19.428Z" fill="#EBEBEB" fill-opacity="0.6"/>
</svg>
