<svg width="22" height="28" viewBox="0 0 22 28" fill="none" xmlns="http://www.w3.org/2000/svg">
<path d="M3.44853 0.744972L5.38528 0.161614C6.26692 -0.104369 7.21522 -0.0404236 8.05316 0.341513C8.8911 0.72345 9.56142 1.39727 9.93897 2.2372L11.1442 4.91831C11.4689 5.64058 11.5594 6.44641 11.4029 7.22271C11.2464 7.99901 10.8507 8.70682 10.2715 9.24683L8.16557 11.2104C8.13954 11.2347 8.11819 11.2636 8.10256 11.2956C7.88205 11.7459 8.2169 12.9488 9.26578 14.7666C10.4488 16.8153 11.3624 17.625 11.7859 17.5002L14.5498 16.6543C15.3068 16.4232 16.1171 16.4347 16.8672 16.6872C17.6172 16.9397 18.2695 17.4206 18.7325 18.0625L20.4452 20.4345C20.983 21.1792 21.232 22.0938 21.1462 23.0084C21.0604 23.923 20.6455 24.7753 19.9786 25.407L18.505 26.8012C17.9926 27.2866 17.3703 27.6408 16.6914 27.8336C16.0124 28.0264 15.2969 28.0521 14.6058 27.9084C10.5025 27.0544 6.82618 23.7503 3.54537 18.0684C0.263402 12.383 -0.759808 7.54109 0.558581 3.55909C0.779272 2.89243 1.15719 2.28869 1.6604 1.79889C2.16361 1.30908 2.77733 0.94759 3.4497 0.744972H3.44853ZM3.95489 2.42037C3.55145 2.54189 3.18319 2.75873 2.88122 3.05258C2.57925 3.34642 2.35245 3.70864 2.21998 4.10861C1.0836 7.53992 2.00414 11.8988 5.06094 17.1933C8.1154 22.4844 11.4265 25.4595 14.9617 26.1945C15.3765 26.2808 15.806 26.2654 16.2136 26.1495C16.6212 26.0337 16.9946 25.821 17.3021 25.5295L18.7745 24.1364C19.1337 23.7964 19.3573 23.3375 19.4037 22.845C19.45 22.3525 19.316 21.8599 19.0265 21.4588L17.3138 19.0857C17.0645 18.7402 16.7134 18.4813 16.3096 18.3453C15.9058 18.2093 15.4696 18.203 15.062 18.3274L12.2911 19.1756C10.758 19.6318 9.31595 18.3542 7.75021 15.6404C6.42366 13.3443 5.96397 11.6853 6.531 10.5267C6.64067 10.3027 6.79001 10.1009 6.97201 9.93052L9.07794 7.96694C9.38996 7.67617 9.6031 7.29499 9.68743 6.87691C9.77176 6.45882 9.72304 6.02483 9.54812 5.63584L8.34291 2.9559C8.13961 2.50351 7.77861 2.14059 7.32731 1.93491C6.876 1.72923 6.36527 1.69485 5.89047 1.83818L3.95372 2.42154L3.95489 2.42037Z" fill="#EBEBEB" fill-opacity="0.6"/>
</svg>
