<svg width="19" height="21" viewBox="0 0 19 21" fill="none" xmlns="http://www.w3.org/2000/svg">
<path d="M10.3002 0.725027L17.7413 8.16597C17.9537 8.37838 18.0703 8.66147 18.0703 8.96333C18.0703 9.26553 17.9536 9.54846 17.7413 9.76086L17.0656 10.4364C16.8535 10.6487 16.5702 10.7656 16.2682 10.7656C15.9663 10.7656 15.6735 10.6487 15.4615 10.4364L11.111 6.0955V19.8869C11.111 20.5087 10.6242 21 10.0022 21H9.04687C8.4249 21 7.88902 20.5087 7.88902 19.8869L7.88902 6.04626L3.51425 10.4363C3.30184 10.6485 3.02628 10.7654 2.72425 10.7654C2.42256 10.7654 2.14298 10.6485 1.93074 10.4363L1.25717 9.7607C1.04476 9.54829 0.929012 9.26536 0.929012 8.96316C0.929012 8.66131 1.04627 8.37821 1.25868 8.1658L8.69962 0.724859C8.9127 0.511951 9.19713 0.394859 9.49949 0.395697C9.80286 0.395027 10.0875 0.511951 10.3002 0.725027Z" fill="#EBEBEB"/>
</svg>
